<svg width="109" height="31" viewBox="0 0 109 31" fill="none" xmlns="http://www.w3.org/2000/svg">
<g clip-path="url(#clip0_12_12)">
<path d="M5.80003 0.742549L13.0747 12.594L20.6867 0.742549H25.5525L15.5799 15.6774L26.0343 31.0939H20.9275L13.0747 18.7607L5.17373 31.0939H0.307875L10.425 15.6774L0.741466 0.742549H5.80003Z" fill="#97C2B8"/>
<path d="M38.6047 0.742549H42.5552L54.6475 31.0939H50.0226L46.6984 22.663H34.2206L30.9446 31.0939H26.3678L38.6047 0.742549ZM35.425 19.1461H45.3976L43.3742 13.8948C42.8282 12.5137 42.3303 11.1809 41.8807 9.89614C41.431 8.61143 40.9814 7.2946 40.5317 5.94564H40.4354C39.9857 7.2946 39.52 8.59537 39.0383 9.84797C38.5565 11.1006 38.0426 12.4495 37.4966 13.8948L35.425 19.1461ZM58.5423 0.742549H68.4186C69.9923 0.742549 71.3734 0.967374 72.5618 1.41702C73.7823 1.86667 74.794 2.49297 75.5969 3.29592C76.3999 4.09887 77.0101 5.0624 77.4276 6.18653C77.8452 7.27854 78.0539 8.48296 78.0539 9.79979C78.0539 10.956 77.8773 11.9999 77.524 12.9313C77.1707 13.8627 76.705 14.6817 76.1269 15.3883C75.5487 16.0628 74.8743 16.657 74.1034 17.1708C73.3647 17.6526 72.61 18.0541 71.8391 18.3753L79.8365 31.0939H74.8743L67.6959 19.1943H62.7337V31.0939H58.5423V0.742549ZM62.7337 15.581H66.3951C67.3908 15.581 68.3062 15.4847 69.1412 15.2919C70.0084 15.0671 70.7471 14.7459 71.3574 14.3284C71.9997 13.8788 72.4975 13.3006 72.8508 12.594C73.2363 11.8874 73.429 11.0363 73.429 10.0407C73.429 8.08148 72.883 6.63618 71.791 5.70476C70.7311 4.77334 69.1733 4.30763 67.1178 4.30763H62.7337V15.581ZM92.8977 0.742549H96.8482L108.941 31.0939H104.316L100.991 22.663H88.5136L85.2375 31.0939H80.6607L92.8977 0.742549ZM89.718 19.1461H99.6906L97.6672 13.8948C97.1212 12.5137 96.6233 11.1809 96.1737 9.89614C95.724 8.61143 95.2744 7.2946 94.8247 5.94564H94.7284C94.2787 7.2946 93.813 8.59537 93.3312 9.84797C92.8495 11.1006 92.3356 12.4495 91.7896 13.8948L89.718 19.1461Z" fill="black"/>
</g>
<defs>
<clipPath id="clip0_12_12">
<rect width="109" height="30.1105" fill="white" transform="translate(0 0.889511)"/>
</clipPath>
</defs>
</svg>
